HIERARCHY
ROOT hip
{
  OFFSET 0 0 0
  CHANNELS 6 Xposition Yposition Zposition Zrotation Yrotation Xrotation
  JOINT abdomen
  {
    OFFSET 0 20.6881 -0.73152
    CHANNELS 3 Zrotation Xrotation Yrotation
    JOINT chest
    {
      OFFSET 0 11.7043 -0.48768
      CHANNELS 3 Zrotation Xrotation Yrotation
      JOINT neck
      {
        OFFSET 0 22.1894 -2.19456
        CHANNELS 3 Zrotation Xrotation Yrotation
        JOINT head
        {
          OFFSET -0.24384 7.07133 1.2192
          CHANNELS 3 Zrotation Xrotation Yrotation
          JOINT leftEye
          {
            OFFSET 4.14528 8.04674 8.04672
            CHANNELS 3 Zrotation Xrotation Yrotation
            End Site
            {
              OFFSET 1 0 0
            }
          }
          JOINT rightEye
          {
            OFFSET -3.6576 8.04674 8.04672
            CHANNELS 3 Zrotation Xrotation Yrotation
            End Site
            {
              OFFSET 1 0 0
            }
          }
        }
      }
      JOINT rCollar
      {
        OFFSET -2.68224 19.2634 -4.8768
        CHANNELS 3 Zrotation Xrotation Yrotation
        JOINT rShldr
        {
          OFFSET -8.77824 -1.95073 1.46304
          CHANNELS 3 Zrotation Xrotation Yrotation
          JOINT rForeArm
          {
            OFFSET -28.1742 -1.7115 0.48768
            CHANNELS 3 Zrotation Xrotation Yrotation
            JOINT rHand
            {
              OFFSET -22.5879 0.773209 7.07136
              CHANNELS 3 Zrotation Xrotation Yrotation
              JOINT rThumb1
              {
                OFFSET -1.2192 -0.487915 3.41376
                CHANNELS 3 Zrotation Xrotation Yrotation
                JOINT rThumb2
                {
                  OFFSET -3.37035 -0.52449 3.41376
                  CHANNELS 3 Zrotation Xrotation Yrotation
                  End Site
                  {
                    OFFSET -1.78271 -1.18214 1.43049
                  }
                }
              }
              JOINT rIndex1
              {
                OFFSET -7.75947 0.938293 5.60832
                CHANNELS 3 Zrotation Xrotation Yrotation
                JOINT rIndex2
                {
                  OFFSET -2.54057 -0.884171 1.56538
                  CHANNELS 3 Zrotation Xrotation Yrotation
                  End Site
                  {
                    OFFSET -1.62519 -0.234802 1.16502
                  }
                }
              }
              JOINT rMid1
              {
                OFFSET -8.24714 1.18213 3.41376
                CHANNELS 3 Zrotation Xrotation Yrotation
                JOINT rMid2
                {
                  OFFSET -3.10165 -0.590103 1.0647
                  CHANNELS 3 Zrotation Xrotation Yrotation
                  End Site
                  {
                    OFFSET -2.48547 -0.328903 0.83742
                  }
                }
              }
              JOINT rRing1
              {
                OFFSET -8.82822 0.546677 1.51678
                CHANNELS 3 Zrotation Xrotation Yrotation
                JOINT rRing2
                {
                  OFFSET -2.60934 -0.819778 -0.0198488
                  CHANNELS 3 Zrotation Xrotation Yrotation
                  End Site
                  {
                    OFFSET -2.33842 -0.294052 0.168128
                  }
                }
              }
              JOINT rPinky1
              {
                OFFSET -8.27202 -0.0477905 -0.4584
                CHANNELS 3 Zrotation Xrotation Yrotation
                JOINT rPinky2
                {
                  OFFSET -1.82734 -0.647385 -0.700984
                  CHANNELS 3 Zrotation Xrotation Yrotation
                  End Site
                  {
                    OFFSET -1.69225 -0.51767 -0.607171
                  }
                }
              }
            }
          }
        }
      }
      JOINT lCollar
      {
        OFFSET 2.68224 19.2634 -4.8768
        CHANNELS 3 Zrotation Xrotation Yrotation
        JOINT lShldr
        {
          OFFSET 8.77824 -1.95073 1.46304
          CHANNELS 3 Zrotation Xrotation Yrotation
          JOINT lForeArm
          {
            OFFSET 28.1742 -1.7115 0.48768
            CHANNELS 3 Zrotation Xrotation Yrotation
            JOINT lHand
            {
              OFFSET 22.5879 0.773209 7.07136
              CHANNELS 3 Zrotation Xrotation Yrotation
              JOINT lThumb1
              {
                OFFSET 1.2192 -0.487915 3.41376
                CHANNELS 3 Zrotation Xrotation Yrotation
                JOINT lThumb2
                {
                  OFFSET 3.37035 -0.52449 3.41376
                  CHANNELS 3 Zrotation Xrotation Yrotation
                  End Site
                  {
                    OFFSET 1.78271 -1.18214 1.43049
                  }
                }
              }
              JOINT lIndex1
              {
                OFFSET 7.75947 0.938293 5.60832
                CHANNELS 3 Zrotation Xrotation Yrotation
                JOINT lIndex2
                {
                  OFFSET 2.54057 -0.884171 1.56538
                  CHANNELS 3 Zrotation Xrotation Yrotation
                  End Site
                  {
                    OFFSET 1.62519 -0.234802 1.16502
                  }
                }
              }
              JOINT lMid1
              {
                OFFSET 8.24714 1.18213 3.41376
                CHANNELS 3 Zrotation Xrotation Yrotation
                JOINT lMid2
                {
                  OFFSET 3.10165 -0.590103 1.0647
                  CHANNELS 3 Zrotation Xrotation Yrotation
                  End Site
                  {
                    OFFSET 2.48547 -0.328903 0.83742
                  }
                }
              }
              JOINT lRing1
              {
                OFFSET 8.82822 0.546677 1.51678
                CHANNELS 3 Zrotation Xrotation Yrotation
                JOINT lRing2
                {
                  OFFSET 2.60934 -0.819778 -0.0198488
                  CHANNELS 3 Zrotation Xrotation Yrotation
                  End Site
                  {
                    OFFSET 2.33842 -0.294052 0.168128
                  }
                }
              }
              JOINT lPinky1
              {
                OFFSET 8.27202 -0.0477905 -0.4584
                CHANNELS 3 Zrotation Xrotation Yrotation
                JOINT lPinky2
                {
                  OFFSET 1.82734 -0.647385 -0.700984
                  CHANNELS 3 Zrotation Xrotation Yrotation
                  End Site
                  {
                    OFFSET 1.69225 -0.51767 -0.607171
                  }
                }
              }
            }
          }
        }
      }
    }
  }
  JOINT rButtock
  {
    OFFSET -8.77824 4.35084 1.2192
    CHANNELS 3 Zrotation Xrotation Yrotation
    JOINT rThigh
    {
      OFFSET 0 -1.70687 -2.19456
      CHANNELS 3 Zrotation Xrotation Yrotation
      JOINT rShin
      {
        OFFSET 0 -36.8199 0.73152
        CHANNELS 3 Zrotation Xrotation Yrotation
        JOINT rFoot
        {
          OFFSET 0.73152 -45.1104 -5.12064
          CHANNELS 3 Zrotation Xrotation Yrotation
          End Site
          {
            OFFSET -1.1221 -3.69964 12.103
          }
        }
      }
    }
  }
  JOINT lButtock
  {
    OFFSET 8.77824 4.35084 1.2192
    CHANNELS 3 Zrotation Xrotation Yrotation
    JOINT lThigh
    {
      OFFSET 0 -1.70687 -2.19456
      CHANNELS 3 Zrotation Xrotation Yrotation
      JOINT lShin
      {
        OFFSET 0 -36.8199 0.73152
        CHANNELS 3 Zrotation Xrotation Yrotation
        JOINT lFoot
        {
          OFFSET -0.73152 -45.1104 -5.12064
          CHANNELS 3 Zrotation Xrotation Yrotation
          End Site
          {
            OFFSET 1.1221 -3.69964 12.103
          }
        }
      }
    }
  }
}
MOTION
Frames:	5
Frame Time:	0.03333
0.0 0.0 0.0 0.0 0.0 0.0 0.0 0.0 0.0 0.0 0.0 0.0 0.0 0.0 0.0 0.0 0.0 0.0 0.0 0.0 0.0 0.0 0.0 0.0 0.0 0.0 0.0 0.0 0.0 0.0 0.0 0.0 0.0 0.0 0.0 0.0 0.0 0.0 0.0 0.0 0.0 0.0 0.0 0.0 0.0 0.0 0.0 0.0 0.0 0.0 0.0 0.0 0.0 0.0 0.0 0.0 0.0 0.0 0.0 0.0 0.0 0.0 0.0 0.0 0.0 0.0 0.0 0.0 0.0 0.0 0.0 0.0 0.0 0.0 0.0 0.0 0.0 0.0 0.0 0.0 0.0 0.0 0.0 0.0 0.0 0.0 0.0 0.0 0.0 0.0 0.0 0.0 0.0 0.0 0.0 0.0 0.0 0.0 0.0 0.0 0.0 0.0 0.0 0.0 0.0 0.0 0.0 0.0 0.0 0.0 0.0 0.0 0.0 0.0 0.0 0.0 0.0 0.0 0.0 0.0 0.0 0.0 0.0 0.0 0.0 0.0 0.0 0.0 0.0 0.0 0.0 0.0
6.8408999999999995 68.64630000000001 -1.6699 -165.459979 -27.164364 172.579974 10.216671 14.934764 93.895432 -8.398423 -1.972202 -72.448619 9.012064 31.109429 153.177595 -18.841748 35.28321 -118.814463 -0.002224 0.0 -0.000194 0.003421 -0.0 -0.000868 -159.219736 -48.028337 170.416164 -50.346211 -25.739273 -40.696612 10.438158 27.274305 -150.733256 -112.946237 44.241704 102.136698 -78.030503 38.689851 42.412621 66.184826 -46.134612 25.017265 -132.820126 12.80867 111.110195 -81.045009 56.379527 60.420925 -10.975192 25.790161 7.6392 -155.39486 16.758427 139.595808 -0.000531 -0.060806 -0.019367 10.314744 0.302133 -0.02743 25.922845 79.093793 10.824526 40.885681 80.719765 -5.413632 13.743871 42.431455 -15.569572 112.750334 3.610606 -105.144168 -25.79372 -46.816337 116.223684 -169.577264 -14.021273 -144.84831 169.148611 -6.830518 -89.916687 177.2559 -14.145562 -91.702139 46.209993 39.652289 -36.318162 178.996014 -31.823179 -109.641989 169.091389 -33.247245 -145.374082 1.486165 12.581834 -2.533111 73.164215 -72.141234 90.198707 67.340332 83.326128 -85.096599 139.221782 -4.396165 136.390362 79.698911 -52.686545 79.55716 -179.999809 75.748167 -0.00013 154.960852 53.833675 -149.944637 -55.667756 -50.225342 -136.595379 -69.742754 -31.466478 -144.297268 0.003868 -0.000111 0.001934 64.348828 -53.492343 156.074349 76.614965 -30.432258 -5.179426 -9.364644 31.411129 -77.175237
9.3198 67.6577 -2.321 -166.05232 -29.489234 172.54907 10.157703 12.855287 118.845258 -7.321273 0.719943 -100.209779 -6.873979 29.221293 -113.316795 31.116822 28.163156 136.025542 0.000159 0.0 0.003445 -0.000849 0.0 -0.002021 -155.548647 -3.804362 161.899614 138.843231 -16.589911 176.984442 11.695046 25.030861 111.111668 -21.425542 -53.030418 -14.86904 -169.319191 -7.001035 89.922082 -77.636402 4.579528 26.401541 -140.762981 1.38113 116.230162 104.145706 -70.602696 51.986563 7.904573 -24.807537 -3.013224 -112.009242 60.030446 102.461681 -0.014395 -1.322991 -0.416931 -156.008049 -13.74836 173.4847 -125.807535 -27.876874 -123.550897 -147.478488 13.79754 -142.505079 155.613887 -4.236341 -161.991266 -129.787706 19.473877 154.189021 12.023243 -17.729118 -91.105854 3.676164 21.785454 -1.479345 173.97716 -11.643086 -89.881549 -164.759153 -31.045428 -100.02914 151.679799 -17.764817 -121.23673 163.065643 -19.409215 -119.556912 12.843899 28.997071 -9.149154 169.301037 -23.655057 -144.301942 145.098764 -1.523303 178.650237 -12.052319 29.596205 5.639452 153.518641 42.536366 148.49331 -22.011949 58.872805 -6.183614 0.008218 0.000651 0.004109 -15.091284 -20.04912 141.812352 53.903063 -67.688124 111.994418 178.377181 28.452054 -83.02178 0.005438 -0.000273 0.005438 68.845662 -52.965983 64.911504 63.853576 67.952747 21.296177 -150.965931 -19.213806 80.451951
11.4675 66.9634 -2.8288 -166.377277 -30.66266 172.588195 12.071796 15.234912 -2.72474 1.619175 -10.091978 20.228683 -6.930243 17.391251 -43.128069 29.256787 -8.352981 73.85367 -0.003169 -0.0 0.002444 0.002439 0.0 0.001516 -9.652172 34.836151 11.199162 77.234204 -18.437261 35.786192 -0.516664 46.554368 115.911415 -24.991215 -64.620206 -23.542562 -0.441336 0.435431 0.068801 -37.286832 26.04581 33.565511 -148.885093 -12.610069 120.244814 -91.637989 55.924343 72.313148 -153.32183 13.629068 138.862157 2.725803 1.645236 0.572708 -72.133152 72.973696 89.990183 -158.786346 -26.831293 179.931104 -142.160952 3.163157 -139.109197 -150.925362 22.526943 -143.941256 155.716966 -4.925445 -162.135224 -95.747885 56.339642 134.273576 37.172596 11.55708 -108.148322 -4.148967 -5.08171 -2.138658 -81.276686 -49.994956 -32.240129 134.851121 19.253245 -99.907496 -88.792454 -75.498617 -40.049592 6.522637 32.453544 -5.43234 -89.03505 -81.393625 -59.760989 83.393507 64.152732 -75.162348 72.349141 72.976365 -90.217239 158.551399 -29.618443 179.599287 135.819946 -11.891855 133.185237 93.796293 -50.155956 93.381264 0.0 -0.001116 0.000264 -14.224139 -20.972623 144.693129 10.237066 -73.744529 -80.417888 -112.126653 -52.483238 -179.397824 -0.003826 0.000853 -0.0 71.941015 -52.732256 68.521804 61.758779 71.152688 -2.065736 164.228448 -63.345886 37.251942
13.220299999999998 66.4682 -3.1716 -166.257873 -31.082206 172.650581 10.489024 10.306301 134.019517 -6.474216 1.98893 -116.395689 -5.393024 30.354701 -127.555823 25.718861 33.878286 149.930081 0.000811 -0.0 -0.002846 -0.004792 0.0 -0.001848 -159.220859 -48.724839 170.568324 -29.564456 8.905348 -30.477537 1.030869 -7.089659 -145.959731 -125.939008 38.802464 116.048593 -2.925107 2.862353 0.521206 -0.72995 1.472276 2.515518 -155.194013 -24.300211 122.141802 16.80078 -10.136704 -10.773152 -0.287122 0.832701 0.159916 168.042019 -64.094124 133.241715 -75.405971 72.952426 93.420291 -158.664588 -27.853668 -179.813444 26.975687 80.122769 10.133373 -85.877539 -53.049994 -84.319094 9.651745 34.83598 -11.200277 118.462947 -4.172901 -112.186947 150.314033 47.252351 108.666937 3.106198 13.048966 -0.372593 93.742909 37.963484 -53.549073 96.903347 -6.684892 -65.852263 166.820025 -43.974178 -122.062053 77.719797 56.95102 -62.616826 8.416635 20.880189 -5.646662 -5.242816 -5.850821 0.691128 145.099496 -1.520371 178.648667 157.199676 45.335389 -175.559142 150.031775 28.965697 145.937232 151.73138 23.519747 144.149615 0.001738 0.000119 0.003477 -12.741646 -22.147735 180.0 -52.020768 -65.504239 57.367284 -56.188366 -55.808002 15.2633 179.998952 75.749912 0.000863 -142.910798 -2.806421 -87.780906 -82.863537 14.669642 126.470383 48.569689 -28.373097 -40.312615
